<mxfile host="app.diagrams.net" agent="Mozilla/5.0 (Windows NT 10.0; Win64; x64; rv:131.0) Gecko/20100101 Firefox/131.0" version="24.8.1">
  <diagram name="Страница — 1" id="FLJ23nERRvQcBkBnEl58">
    <mxGraphModel dx="976" dy="606" grid="1" gridSize="10" guides="1" tooltips="1" connect="1" arrows="1" fold="1" page="1" pageScale="1" pageWidth="827" pageHeight="1169" math="0" shadow="0">
      <root>
        <mxCell id="0" />
        <mxCell id="1" parent="0" />
        <mxCell id="wZQ5TBWJvy9FHSXDg1Wt-5" value="&lt;div&gt;deals table&lt;/div&gt;&lt;div&gt;N1 items&lt;br&gt;&lt;/div&gt;" style="rounded=0;whiteSpace=wrap;html=1;fillColor=#ffe6cc;strokeColor=#d79b00;" vertex="1" parent="1">
          <mxGeometry x="160" y="230" width="120" height="60" as="geometry" />
        </mxCell>
        <mxCell id="wZQ5TBWJvy9FHSXDg1Wt-27" style="edgeStyle=orthogonalEdgeStyle;rounded=0;orthogonalLoop=1;jettySize=auto;html=1;entryX=0;entryY=0.75;entryDx=0;entryDy=0;fillColor=#e1d5e7;strokeColor=#9673a6;" edge="1" parent="1" source="wZQ5TBWJvy9FHSXDg1Wt-6" target="wZQ5TBWJvy9FHSXDg1Wt-19">
          <mxGeometry relative="1" as="geometry" />
        </mxCell>
        <mxCell id="wZQ5TBWJvy9FHSXDg1Wt-6" value="&lt;div&gt;tasks table&lt;/div&gt;&lt;div&gt;N3 items&lt;br&gt;&lt;/div&gt;" style="rounded=0;whiteSpace=wrap;html=1;fillColor=#e1d5e7;strokeColor=#9673a6;" vertex="1" parent="1">
          <mxGeometry x="160" y="400" width="120" height="60" as="geometry" />
        </mxCell>
        <mxCell id="wZQ5TBWJvy9FHSXDg1Wt-7" value="&lt;div&gt;loaners table&lt;/div&gt;&lt;div&gt;N2 Iiems&lt;br&gt;&lt;/div&gt;" style="rounded=0;whiteSpace=wrap;html=1;fillColor=#dae8fc;strokeColor=#6c8ebf;" vertex="1" parent="1">
          <mxGeometry x="160" y="310" width="120" height="60" as="geometry" />
        </mxCell>
        <mxCell id="wZQ5TBWJvy9FHSXDg1Wt-8" value="collect table" style="rounded=0;whiteSpace=wrap;html=1;fillColor=#d5e8d4;strokeColor=#82b366;" vertex="1" parent="1">
          <mxGeometry x="827" y="300" width="120" height="60" as="geometry" />
        </mxCell>
        <mxCell id="wZQ5TBWJvy9FHSXDg1Wt-9" value="&lt;div&gt;merge task&lt;/div&gt;&lt;div&gt;for deals&lt;br&gt;&lt;/div&gt;&lt;div&gt;N1 +offset +interval&lt;br&gt;&lt;/div&gt;" style="rounded=1;whiteSpace=wrap;html=1;fillColor=#ffe6cc;strokeColor=#d79b00;" vertex="1" parent="1">
          <mxGeometry x="370" y="140" width="120" height="60" as="geometry" />
        </mxCell>
        <mxCell id="wZQ5TBWJvy9FHSXDg1Wt-10" value="&lt;div&gt;merge task&lt;/div&gt;&lt;div&gt;for deals&lt;br&gt;&lt;/div&gt;&lt;div&gt;N1 +offset +interval&lt;br&gt;&lt;/div&gt;" style="rounded=1;whiteSpace=wrap;html=1;fillColor=#ffe6cc;strokeColor=#d79b00;" vertex="1" parent="1">
          <mxGeometry x="380" y="150" width="120" height="60" as="geometry" />
        </mxCell>
        <mxCell id="wZQ5TBWJvy9FHSXDg1Wt-29" style="edgeStyle=orthogonalEdgeStyle;rounded=0;orthogonalLoop=1;jettySize=auto;html=1;entryX=0.25;entryY=1;entryDx=0;entryDy=0;fillColor=#ffe6cc;strokeColor=#d79b00;" edge="1" parent="1" source="wZQ5TBWJvy9FHSXDg1Wt-18" target="wZQ5TBWJvy9FHSXDg1Wt-28">
          <mxGeometry relative="1" as="geometry" />
        </mxCell>
        <mxCell id="wZQ5TBWJvy9FHSXDg1Wt-18" value="&lt;div&gt;merge task&lt;/div&gt;&lt;div&gt;for deals&lt;br&gt;&lt;/div&gt;&lt;div&gt;N1 +offset +interval&lt;br&gt;&lt;/div&gt;" style="rounded=1;whiteSpace=wrap;html=1;fillColor=#ffe6cc;strokeColor=#d79b00;" vertex="1" parent="1">
          <mxGeometry x="390" y="160" width="120" height="60" as="geometry" />
        </mxCell>
        <mxCell id="wZQ5TBWJvy9FHSXDg1Wt-19" value="&lt;div&gt;merge task&lt;/div&gt;&lt;div&gt;for tasks&lt;br&gt;&lt;/div&gt;&lt;div&gt;N3 +offset +interval&lt;br&gt;&lt;/div&gt;" style="rounded=1;whiteSpace=wrap;html=1;fillColor=#e1d5e7;strokeColor=#9673a6;" vertex="1" parent="1">
          <mxGeometry x="500" y="450" width="120" height="60" as="geometry" />
        </mxCell>
        <mxCell id="wZQ5TBWJvy9FHSXDg1Wt-20" value="&lt;div&gt;merge task&lt;/div&gt;&lt;div&gt;for tasks&lt;br&gt;&lt;/div&gt;&lt;div&gt;N3 +offset +interval&lt;br&gt;&lt;/div&gt;" style="rounded=1;whiteSpace=wrap;html=1;fillColor=#e1d5e7;strokeColor=#9673a6;" vertex="1" parent="1">
          <mxGeometry x="510" y="460" width="120" height="60" as="geometry" />
        </mxCell>
        <mxCell id="wZQ5TBWJvy9FHSXDg1Wt-31" style="edgeStyle=orthogonalEdgeStyle;rounded=0;orthogonalLoop=1;jettySize=auto;html=1;entryX=0.75;entryY=1;entryDx=0;entryDy=0;exitX=1;exitY=0.5;exitDx=0;exitDy=0;fillColor=#e1d5e7;strokeColor=#9673a6;" edge="1" parent="1" source="wZQ5TBWJvy9FHSXDg1Wt-21" target="wZQ5TBWJvy9FHSXDg1Wt-28">
          <mxGeometry relative="1" as="geometry" />
        </mxCell>
        <mxCell id="wZQ5TBWJvy9FHSXDg1Wt-21" value="&lt;div&gt;merge task&lt;/div&gt;&lt;div&gt;for tasks&lt;br&gt;&lt;/div&gt;&lt;div&gt;N3 +offset +interval&lt;br&gt;&lt;/div&gt;" style="rounded=1;whiteSpace=wrap;html=1;fillColor=#e1d5e7;strokeColor=#9673a6;" vertex="1" parent="1">
          <mxGeometry x="520" y="470" width="120" height="60" as="geometry" />
        </mxCell>
        <mxCell id="wZQ5TBWJvy9FHSXDg1Wt-22" value="&lt;div&gt;merge task&lt;/div&gt;&lt;div&gt;for loaners&lt;br&gt;&lt;/div&gt;&lt;div&gt;N3 +offset +interval&lt;br&gt;&lt;/div&gt;" style="rounded=1;whiteSpace=wrap;html=1;fillColor=#dae8fc;strokeColor=#6c8ebf;" vertex="1" parent="1">
          <mxGeometry x="430" y="310" width="120" height="60" as="geometry" />
        </mxCell>
        <mxCell id="wZQ5TBWJvy9FHSXDg1Wt-23" value="&lt;div&gt;merge task&lt;/div&gt;&lt;div&gt;for loaners&lt;br&gt;&lt;/div&gt;&lt;div&gt;N3 +offset +interval&lt;br&gt;&lt;/div&gt;" style="rounded=1;whiteSpace=wrap;html=1;fillColor=#dae8fc;strokeColor=#6c8ebf;" vertex="1" parent="1">
          <mxGeometry x="440" y="310" width="120" height="60" as="geometry" />
        </mxCell>
        <mxCell id="wZQ5TBWJvy9FHSXDg1Wt-30" style="edgeStyle=orthogonalEdgeStyle;rounded=0;orthogonalLoop=1;jettySize=auto;html=1;entryX=0.5;entryY=1;entryDx=0;entryDy=0;fillColor=#dae8fc;strokeColor=#6c8ebf;" edge="1" parent="1" source="wZQ5TBWJvy9FHSXDg1Wt-24" target="wZQ5TBWJvy9FHSXDg1Wt-28">
          <mxGeometry relative="1" as="geometry" />
        </mxCell>
        <mxCell id="wZQ5TBWJvy9FHSXDg1Wt-24" value="&lt;div&gt;merge task&lt;/div&gt;&lt;div&gt;for loaners&lt;br&gt;&lt;/div&gt;&lt;div&gt;N2 +offset +interval&lt;br&gt;&lt;/div&gt;" style="rounded=1;whiteSpace=wrap;html=1;fillColor=#dae8fc;strokeColor=#6c8ebf;" vertex="1" parent="1">
          <mxGeometry x="450" y="310" width="120" height="60" as="geometry" />
        </mxCell>
        <mxCell id="wZQ5TBWJvy9FHSXDg1Wt-25" style="edgeStyle=orthogonalEdgeStyle;rounded=0;orthogonalLoop=1;jettySize=auto;html=1;fillColor=#dae8fc;strokeColor=#6c8ebf;" edge="1" parent="1" source="wZQ5TBWJvy9FHSXDg1Wt-7">
          <mxGeometry relative="1" as="geometry">
            <mxPoint x="430" y="340" as="targetPoint" />
          </mxGeometry>
        </mxCell>
        <mxCell id="wZQ5TBWJvy9FHSXDg1Wt-26" style="edgeStyle=orthogonalEdgeStyle;rounded=0;orthogonalLoop=1;jettySize=auto;html=1;entryX=0;entryY=0.25;entryDx=0;entryDy=0;fillColor=#ffe6cc;strokeColor=#d79b00;" edge="1" parent="1" source="wZQ5TBWJvy9FHSXDg1Wt-5" target="wZQ5TBWJvy9FHSXDg1Wt-9">
          <mxGeometry relative="1" as="geometry" />
        </mxCell>
        <mxCell id="wZQ5TBWJvy9FHSXDg1Wt-32" value="&lt;div&gt;insert N1&lt;/div&gt;&lt;div&gt;by task&lt;br&gt;&lt;/div&gt;" style="edgeStyle=orthogonalEdgeStyle;rounded=0;orthogonalLoop=1;jettySize=auto;html=1;entryX=0.25;entryY=0;entryDx=0;entryDy=0;exitX=1.042;exitY=0.867;exitDx=0;exitDy=0;exitPerimeter=0;fillColor=#ffe6cc;strokeColor=#d79b00;" edge="1" parent="1" source="wZQ5TBWJvy9FHSXDg1Wt-28" target="wZQ5TBWJvy9FHSXDg1Wt-8">
          <mxGeometry relative="1" as="geometry" />
        </mxCell>
        <mxCell id="wZQ5TBWJvy9FHSXDg1Wt-33" value="&lt;div&gt;update N2&lt;/div&gt;&lt;div&gt;by task&lt;br&gt;&lt;/div&gt;" style="edgeStyle=orthogonalEdgeStyle;rounded=0;orthogonalLoop=1;jettySize=auto;html=1;fillColor=#dae8fc;strokeColor=#6c8ebf;" edge="1" parent="1" source="wZQ5TBWJvy9FHSXDg1Wt-28" target="wZQ5TBWJvy9FHSXDg1Wt-8">
          <mxGeometry relative="1" as="geometry" />
        </mxCell>
        <mxCell id="wZQ5TBWJvy9FHSXDg1Wt-34" value="&lt;div&gt;update N3&lt;/div&gt;&lt;div&gt;by task&lt;br&gt;&lt;/div&gt;" style="edgeStyle=orthogonalEdgeStyle;rounded=0;orthogonalLoop=1;jettySize=auto;html=1;entryX=0.75;entryY=0;entryDx=0;entryDy=0;exitX=1.017;exitY=0.117;exitDx=0;exitDy=0;exitPerimeter=0;fillColor=#e1d5e7;strokeColor=#9673a6;" edge="1" parent="1" source="wZQ5TBWJvy9FHSXDg1Wt-28" target="wZQ5TBWJvy9FHSXDg1Wt-8">
          <mxGeometry relative="1" as="geometry">
            <mxPoint x="750" y="80" as="sourcePoint" />
          </mxGeometry>
        </mxCell>
        <mxCell id="wZQ5TBWJvy9FHSXDg1Wt-28" value="app-service" style="rounded=1;whiteSpace=wrap;html=1;fillColor=#d5e8d4;strokeColor=#82b366;" vertex="1" parent="1">
          <mxGeometry x="620" y="70" width="120" height="60" as="geometry" />
        </mxCell>
      </root>
    </mxGraphModel>
  </diagram>
</mxfile>
